<mxfile host="app.diagrams.net" modified="2024-04-07T20:09:45.890Z" agent="Mozilla/5.0 (Macintosh; Intel Mac OS X 10_15_7) AppleWebKit/537.36 (KHTML, like Gecko) Chrome/122.0.0.0 Safari/537.36" etag="_gsL8ODRxb98abHiv2ie" version="23.1.6" type="github">
  <diagram name="Page-1" id="agT5lnZlZGCf03avnsLv">
    <mxGraphModel dx="2116" dy="974" grid="1" gridSize="10" guides="1" tooltips="1" connect="1" arrows="1" fold="1" page="1" pageScale="1" pageWidth="850" pageHeight="1100" math="0" shadow="0">
      <root>
        <mxCell id="0" />
        <mxCell id="1" parent="0" />
        <mxCell id="VrxfjHSECOV5ghHh9eAR-52" value="fitbit_day_detail" style="shape=table;startSize=30;container=1;collapsible=1;childLayout=tableLayout;fixedRows=1;rowLines=0;fontStyle=1;align=center;resizeLast=1;html=1;" parent="1" vertex="1">
          <mxGeometry x="20" y="110" width="560" height="210" as="geometry" />
        </mxCell>
        <mxCell id="VrxfjHSECOV5ghHh9eAR-88" style="shape=tableRow;horizontal=0;startSize=0;swimlaneHead=0;swimlaneBody=0;fillColor=none;collapsible=0;dropTarget=0;points=[[0,0.5],[1,0.5]];portConstraint=eastwest;top=0;left=0;right=0;bottom=1;" parent="VrxfjHSECOV5ghHh9eAR-52" vertex="1">
          <mxGeometry y="30" width="560" height="30" as="geometry" />
        </mxCell>
        <mxCell id="VrxfjHSECOV5ghHh9eAR-89" value="id" style="shape=partialRectangle;connectable=0;fillColor=none;top=0;left=0;bottom=0;right=0;fontStyle=1;overflow=hidden;whiteSpace=wrap;html=1;" parent="VrxfjHSECOV5ghHh9eAR-88" vertex="1">
          <mxGeometry width="80" height="30" as="geometry">
            <mxRectangle width="80" height="30" as="alternateBounds" />
          </mxGeometry>
        </mxCell>
        <mxCell id="VrxfjHSECOV5ghHh9eAR-90" value="int unsigned" style="shape=partialRectangle;connectable=0;fillColor=none;top=0;left=0;bottom=0;right=0;align=left;spacingLeft=6;fontStyle=5;overflow=hidden;whiteSpace=wrap;html=1;" parent="VrxfjHSECOV5ghHh9eAR-88" vertex="1">
          <mxGeometry x="80" width="100" height="30" as="geometry">
            <mxRectangle width="100" height="30" as="alternateBounds" />
          </mxGeometry>
        </mxCell>
        <mxCell id="VrxfjHSECOV5ghHh9eAR-91" value="ID of day detail record" style="shape=partialRectangle;connectable=0;fillColor=none;top=0;left=0;bottom=0;right=0;align=left;spacingLeft=6;fontStyle=5;overflow=hidden;whiteSpace=wrap;html=1;" parent="VrxfjHSECOV5ghHh9eAR-88" vertex="1">
          <mxGeometry x="180" width="230.00000000000023" height="30" as="geometry">
            <mxRectangle width="230.00000000000023" height="30" as="alternateBounds" />
          </mxGeometry>
        </mxCell>
        <mxCell id="VrxfjHSECOV5ghHh9eAR-92" value="Primary key, auto increment" style="shape=partialRectangle;connectable=0;fillColor=none;top=0;left=0;bottom=0;right=0;align=left;spacingLeft=6;fontStyle=5;overflow=hidden;whiteSpace=wrap;html=1;" parent="VrxfjHSECOV5ghHh9eAR-88" vertex="1">
          <mxGeometry x="410.0000000000002" width="149.99999999999977" height="30" as="geometry">
            <mxRectangle width="149.99999999999977" height="30" as="alternateBounds" />
          </mxGeometry>
        </mxCell>
        <mxCell id="VrxfjHSECOV5ghHh9eAR-83" style="shape=tableRow;horizontal=0;startSize=0;swimlaneHead=0;swimlaneBody=0;fillColor=none;collapsible=0;dropTarget=0;points=[[0,0.5],[1,0.5]];portConstraint=eastwest;top=0;left=0;right=0;bottom=1;" parent="VrxfjHSECOV5ghHh9eAR-52" vertex="1">
          <mxGeometry y="60" width="560" height="30" as="geometry" />
        </mxCell>
        <mxCell id="VrxfjHSECOV5ghHh9eAR-84" value="userid" style="shape=partialRectangle;connectable=0;fillColor=none;top=0;left=0;bottom=0;right=0;fontStyle=1;overflow=hidden;whiteSpace=wrap;html=1;" parent="VrxfjHSECOV5ghHh9eAR-83" vertex="1">
          <mxGeometry width="80" height="30" as="geometry">
            <mxRectangle width="80" height="30" as="alternateBounds" />
          </mxGeometry>
        </mxCell>
        <mxCell id="VrxfjHSECOV5ghHh9eAR-85" value="int unsigned" style="shape=partialRectangle;connectable=0;fillColor=none;top=0;left=0;bottom=0;right=0;align=left;spacingLeft=6;fontStyle=5;overflow=hidden;whiteSpace=wrap;html=1;" parent="VrxfjHSECOV5ghHh9eAR-83" vertex="1">
          <mxGeometry x="80" width="100" height="30" as="geometry">
            <mxRectangle width="100" height="30" as="alternateBounds" />
          </mxGeometry>
        </mxCell>
        <mxCell id="VrxfjHSECOV5ghHh9eAR-86" value="User ID number" style="shape=partialRectangle;connectable=0;fillColor=none;top=0;left=0;bottom=0;right=0;align=left;spacingLeft=6;fontStyle=5;overflow=hidden;whiteSpace=wrap;html=1;" parent="VrxfjHSECOV5ghHh9eAR-83" vertex="1">
          <mxGeometry x="180" width="230.00000000000023" height="30" as="geometry">
            <mxRectangle width="230.00000000000023" height="30" as="alternateBounds" />
          </mxGeometry>
        </mxCell>
        <mxCell id="VrxfjHSECOV5ghHh9eAR-87" style="shape=partialRectangle;connectable=0;fillColor=none;top=0;left=0;bottom=0;right=0;align=left;spacingLeft=6;fontStyle=5;overflow=hidden;whiteSpace=wrap;html=1;" parent="VrxfjHSECOV5ghHh9eAR-83" vertex="1">
          <mxGeometry x="410.0000000000002" width="149.99999999999977" height="30" as="geometry">
            <mxRectangle width="149.99999999999977" height="30" as="alternateBounds" />
          </mxGeometry>
        </mxCell>
        <mxCell id="VrxfjHSECOV5ghHh9eAR-78" style="shape=tableRow;horizontal=0;startSize=0;swimlaneHead=0;swimlaneBody=0;fillColor=none;collapsible=0;dropTarget=0;points=[[0,0.5],[1,0.5]];portConstraint=eastwest;top=0;left=0;right=0;bottom=1;" parent="VrxfjHSECOV5ghHh9eAR-52" vertex="1">
          <mxGeometry y="90" width="560" height="30" as="geometry" />
        </mxCell>
        <mxCell id="VrxfjHSECOV5ghHh9eAR-79" value="fitbit_steps" style="shape=partialRectangle;connectable=0;fillColor=none;top=0;left=0;bottom=0;right=0;fontStyle=1;overflow=hidden;whiteSpace=wrap;html=1;" parent="VrxfjHSECOV5ghHh9eAR-78" vertex="1">
          <mxGeometry width="80" height="30" as="geometry">
            <mxRectangle width="80" height="30" as="alternateBounds" />
          </mxGeometry>
        </mxCell>
        <mxCell id="VrxfjHSECOV5ghHh9eAR-80" value="int" style="shape=partialRectangle;connectable=0;fillColor=none;top=0;left=0;bottom=0;right=0;align=left;spacingLeft=6;fontStyle=5;overflow=hidden;whiteSpace=wrap;html=1;" parent="VrxfjHSECOV5ghHh9eAR-78" vertex="1">
          <mxGeometry x="80" width="100" height="30" as="geometry">
            <mxRectangle width="100" height="30" as="alternateBounds" />
          </mxGeometry>
        </mxCell>
        <mxCell id="VrxfjHSECOV5ghHh9eAR-81" value="Steps recorded in the day" style="shape=partialRectangle;connectable=0;fillColor=none;top=0;left=0;bottom=0;right=0;align=left;spacingLeft=6;fontStyle=5;overflow=hidden;whiteSpace=wrap;html=1;" parent="VrxfjHSECOV5ghHh9eAR-78" vertex="1">
          <mxGeometry x="180" width="230.00000000000023" height="30" as="geometry">
            <mxRectangle width="230.00000000000023" height="30" as="alternateBounds" />
          </mxGeometry>
        </mxCell>
        <mxCell id="VrxfjHSECOV5ghHh9eAR-82" value="" style="shape=partialRectangle;connectable=0;fillColor=none;top=0;left=0;bottom=0;right=0;align=left;spacingLeft=6;fontStyle=5;overflow=hidden;whiteSpace=wrap;html=1;" parent="VrxfjHSECOV5ghHh9eAR-78" vertex="1">
          <mxGeometry x="410.0000000000002" width="149.99999999999977" height="30" as="geometry">
            <mxRectangle width="149.99999999999977" height="30" as="alternateBounds" />
          </mxGeometry>
        </mxCell>
        <mxCell id="VrxfjHSECOV5ghHh9eAR-73" style="shape=tableRow;horizontal=0;startSize=0;swimlaneHead=0;swimlaneBody=0;fillColor=none;collapsible=0;dropTarget=0;points=[[0,0.5],[1,0.5]];portConstraint=eastwest;top=0;left=0;right=0;bottom=1;" parent="VrxfjHSECOV5ghHh9eAR-52" vertex="1">
          <mxGeometry y="120" width="560" height="30" as="geometry" />
        </mxCell>
        <mxCell id="VrxfjHSECOV5ghHh9eAR-74" value="created" style="shape=partialRectangle;connectable=0;fillColor=none;top=0;left=0;bottom=0;right=0;fontStyle=1;overflow=hidden;whiteSpace=wrap;html=1;" parent="VrxfjHSECOV5ghHh9eAR-73" vertex="1">
          <mxGeometry width="80" height="30" as="geometry">
            <mxRectangle width="80" height="30" as="alternateBounds" />
          </mxGeometry>
        </mxCell>
        <mxCell id="VrxfjHSECOV5ghHh9eAR-75" value="int" style="shape=partialRectangle;connectable=0;fillColor=none;top=0;left=0;bottom=0;right=0;align=left;spacingLeft=6;fontStyle=5;overflow=hidden;whiteSpace=wrap;html=1;" parent="VrxfjHSECOV5ghHh9eAR-73" vertex="1">
          <mxGeometry x="80" width="100" height="30" as="geometry">
            <mxRectangle width="100" height="30" as="alternateBounds" />
          </mxGeometry>
        </mxCell>
        <mxCell id="VrxfjHSECOV5ghHh9eAR-76" value="Unknown" style="shape=partialRectangle;connectable=0;fillColor=none;top=0;left=0;bottom=0;right=0;align=left;spacingLeft=6;fontStyle=5;overflow=hidden;whiteSpace=wrap;html=1;" parent="VrxfjHSECOV5ghHh9eAR-73" vertex="1">
          <mxGeometry x="180" width="230.00000000000023" height="30" as="geometry">
            <mxRectangle width="230.00000000000023" height="30" as="alternateBounds" />
          </mxGeometry>
        </mxCell>
        <mxCell id="VrxfjHSECOV5ghHh9eAR-77" style="shape=partialRectangle;connectable=0;fillColor=none;top=0;left=0;bottom=0;right=0;align=left;spacingLeft=6;fontStyle=5;overflow=hidden;whiteSpace=wrap;html=1;" parent="VrxfjHSECOV5ghHh9eAR-73" vertex="1">
          <mxGeometry x="410.0000000000002" width="149.99999999999977" height="30" as="geometry">
            <mxRectangle width="149.99999999999977" height="30" as="alternateBounds" />
          </mxGeometry>
        </mxCell>
        <mxCell id="HI9bSLsyh9AOANlxZ15x-6" style="shape=tableRow;horizontal=0;startSize=0;swimlaneHead=0;swimlaneBody=0;fillColor=none;collapsible=0;dropTarget=0;points=[[0,0.5],[1,0.5]];portConstraint=eastwest;top=0;left=0;right=0;bottom=1;" vertex="1" parent="VrxfjHSECOV5ghHh9eAR-52">
          <mxGeometry y="150" width="560" height="30" as="geometry" />
        </mxCell>
        <mxCell id="HI9bSLsyh9AOANlxZ15x-7" value="changed" style="shape=partialRectangle;connectable=0;fillColor=none;top=0;left=0;bottom=0;right=0;fontStyle=1;overflow=hidden;whiteSpace=wrap;html=1;" vertex="1" parent="HI9bSLsyh9AOANlxZ15x-6">
          <mxGeometry width="80" height="30" as="geometry">
            <mxRectangle width="80" height="30" as="alternateBounds" />
          </mxGeometry>
        </mxCell>
        <mxCell id="HI9bSLsyh9AOANlxZ15x-8" value="int" style="shape=partialRectangle;connectable=0;fillColor=none;top=0;left=0;bottom=0;right=0;align=left;spacingLeft=6;fontStyle=5;overflow=hidden;whiteSpace=wrap;html=1;" vertex="1" parent="HI9bSLsyh9AOANlxZ15x-6">
          <mxGeometry x="80" width="100" height="30" as="geometry">
            <mxRectangle width="100" height="30" as="alternateBounds" />
          </mxGeometry>
        </mxCell>
        <mxCell id="HI9bSLsyh9AOANlxZ15x-9" value="Unknown" style="shape=partialRectangle;connectable=0;fillColor=none;top=0;left=0;bottom=0;right=0;align=left;spacingLeft=6;fontStyle=5;overflow=hidden;whiteSpace=wrap;html=1;" vertex="1" parent="HI9bSLsyh9AOANlxZ15x-6">
          <mxGeometry x="180" width="230.00000000000023" height="30" as="geometry">
            <mxRectangle width="230.00000000000023" height="30" as="alternateBounds" />
          </mxGeometry>
        </mxCell>
        <mxCell id="HI9bSLsyh9AOANlxZ15x-10" style="shape=partialRectangle;connectable=0;fillColor=none;top=0;left=0;bottom=0;right=0;align=left;spacingLeft=6;fontStyle=5;overflow=hidden;whiteSpace=wrap;html=1;" vertex="1" parent="HI9bSLsyh9AOANlxZ15x-6">
          <mxGeometry x="410.0000000000002" width="149.99999999999977" height="30" as="geometry">
            <mxRectangle width="149.99999999999977" height="30" as="alternateBounds" />
          </mxGeometry>
        </mxCell>
        <mxCell id="HI9bSLsyh9AOANlxZ15x-1" style="shape=tableRow;horizontal=0;startSize=0;swimlaneHead=0;swimlaneBody=0;fillColor=none;collapsible=0;dropTarget=0;points=[[0,0.5],[1,0.5]];portConstraint=eastwest;top=0;left=0;right=0;bottom=1;" vertex="1" parent="VrxfjHSECOV5ghHh9eAR-52">
          <mxGeometry y="180" width="560" height="30" as="geometry" />
        </mxCell>
        <mxCell id="HI9bSLsyh9AOANlxZ15x-2" value="fitbit_date" style="shape=partialRectangle;connectable=0;fillColor=none;top=0;left=0;bottom=0;right=0;fontStyle=1;overflow=hidden;whiteSpace=wrap;html=1;" vertex="1" parent="HI9bSLsyh9AOANlxZ15x-1">
          <mxGeometry width="80" height="30" as="geometry">
            <mxRectangle width="80" height="30" as="alternateBounds" />
          </mxGeometry>
        </mxCell>
        <mxCell id="HI9bSLsyh9AOANlxZ15x-3" value="datetime" style="shape=partialRectangle;connectable=0;fillColor=none;top=0;left=0;bottom=0;right=0;align=left;spacingLeft=6;fontStyle=5;overflow=hidden;whiteSpace=wrap;html=1;" vertex="1" parent="HI9bSLsyh9AOANlxZ15x-1">
          <mxGeometry x="80" width="100" height="30" as="geometry">
            <mxRectangle width="100" height="30" as="alternateBounds" />
          </mxGeometry>
        </mxCell>
        <mxCell id="HI9bSLsyh9AOANlxZ15x-4" value="Date of day detail record" style="shape=partialRectangle;connectable=0;fillColor=none;top=0;left=0;bottom=0;right=0;align=left;spacingLeft=6;fontStyle=5;overflow=hidden;whiteSpace=wrap;html=1;" vertex="1" parent="HI9bSLsyh9AOANlxZ15x-1">
          <mxGeometry x="180" width="230.00000000000023" height="30" as="geometry">
            <mxRectangle width="230.00000000000023" height="30" as="alternateBounds" />
          </mxGeometry>
        </mxCell>
        <mxCell id="HI9bSLsyh9AOANlxZ15x-5" style="shape=partialRectangle;connectable=0;fillColor=none;top=0;left=0;bottom=0;right=0;align=left;spacingLeft=6;fontStyle=5;overflow=hidden;whiteSpace=wrap;html=1;" vertex="1" parent="HI9bSLsyh9AOANlxZ15x-1">
          <mxGeometry x="410.0000000000002" width="149.99999999999977" height="30" as="geometry">
            <mxRectangle width="149.99999999999977" height="30" as="alternateBounds" />
          </mxGeometry>
        </mxCell>
        <mxCell id="VrxfjHSECOV5ghHh9eAR-93" value="users_field_date" style="shape=table;startSize=30;container=1;collapsible=1;childLayout=tableLayout;fixedRows=1;rowLines=0;fontStyle=1;align=center;resizeLast=1;html=1;" parent="1" vertex="1">
          <mxGeometry x="40" y="390" width="560" height="180.00000000000045" as="geometry" />
        </mxCell>
        <mxCell id="VrxfjHSECOV5ghHh9eAR-94" style="shape=tableRow;horizontal=0;startSize=0;swimlaneHead=0;swimlaneBody=0;fillColor=none;collapsible=0;dropTarget=0;points=[[0,0.5],[1,0.5]];portConstraint=eastwest;top=0;left=0;right=0;bottom=1;" parent="VrxfjHSECOV5ghHh9eAR-93" vertex="1">
          <mxGeometry y="30" width="560" height="40" as="geometry" />
        </mxCell>
        <mxCell id="VrxfjHSECOV5ghHh9eAR-95" value="uid" style="shape=partialRectangle;connectable=0;fillColor=none;top=0;left=0;bottom=0;right=0;fontStyle=1;overflow=hidden;whiteSpace=wrap;html=1;" parent="VrxfjHSECOV5ghHh9eAR-94" vertex="1">
          <mxGeometry width="110.00000000000011" height="40" as="geometry">
            <mxRectangle width="110.00000000000011" height="40" as="alternateBounds" />
          </mxGeometry>
        </mxCell>
        <mxCell id="VrxfjHSECOV5ghHh9eAR-96" value="int unsigned" style="shape=partialRectangle;connectable=0;fillColor=none;top=0;left=0;bottom=0;right=0;align=left;spacingLeft=6;fontStyle=5;overflow=hidden;whiteSpace=wrap;html=1;" parent="VrxfjHSECOV5ghHh9eAR-94" vertex="1">
          <mxGeometry x="110.00000000000011" width="89.99999999999989" height="40" as="geometry">
            <mxRectangle width="89.99999999999989" height="40" as="alternateBounds" />
          </mxGeometry>
        </mxCell>
        <mxCell id="VrxfjHSECOV5ghHh9eAR-97" value="User id number" style="shape=partialRectangle;connectable=0;fillColor=none;top=0;left=0;bottom=0;right=0;align=left;spacingLeft=6;fontStyle=5;overflow=hidden;whiteSpace=wrap;html=1;" parent="VrxfjHSECOV5ghHh9eAR-94" vertex="1">
          <mxGeometry x="200" width="190.00000000000023" height="40" as="geometry">
            <mxRectangle width="190.00000000000023" height="40" as="alternateBounds" />
          </mxGeometry>
        </mxCell>
        <mxCell id="VrxfjHSECOV5ghHh9eAR-98" value="Primary key" style="shape=partialRectangle;connectable=0;fillColor=none;top=0;left=0;bottom=0;right=0;align=left;spacingLeft=6;fontStyle=5;overflow=hidden;whiteSpace=wrap;html=1;" parent="VrxfjHSECOV5ghHh9eAR-94" vertex="1">
          <mxGeometry x="390.0000000000002" width="169.99999999999977" height="40" as="geometry">
            <mxRectangle width="169.99999999999977" height="40" as="alternateBounds" />
          </mxGeometry>
        </mxCell>
        <mxCell id="VrxfjHSECOV5ghHh9eAR-99" style="shape=tableRow;horizontal=0;startSize=0;swimlaneHead=0;swimlaneBody=0;fillColor=none;collapsible=0;dropTarget=0;points=[[0,0.5],[1,0.5]];portConstraint=eastwest;top=0;left=0;right=0;bottom=1;" parent="VrxfjHSECOV5ghHh9eAR-93" vertex="1">
          <mxGeometry y="70" width="560" height="20" as="geometry" />
        </mxCell>
        <mxCell id="VrxfjHSECOV5ghHh9eAR-100" value="langcode" style="shape=partialRectangle;connectable=0;fillColor=none;top=0;left=0;bottom=0;right=0;fontStyle=1;overflow=hidden;whiteSpace=wrap;html=1;" parent="VrxfjHSECOV5ghHh9eAR-99" vertex="1">
          <mxGeometry width="110.00000000000011" height="20" as="geometry">
            <mxRectangle width="110.00000000000011" height="20" as="alternateBounds" />
          </mxGeometry>
        </mxCell>
        <mxCell id="VrxfjHSECOV5ghHh9eAR-101" value="varchar(12)" style="shape=partialRectangle;connectable=0;fillColor=none;top=0;left=0;bottom=0;right=0;align=left;spacingLeft=6;fontStyle=5;overflow=hidden;whiteSpace=wrap;html=1;" parent="VrxfjHSECOV5ghHh9eAR-99" vertex="1">
          <mxGeometry x="110.00000000000011" width="89.99999999999989" height="20" as="geometry">
            <mxRectangle width="89.99999999999989" height="20" as="alternateBounds" />
          </mxGeometry>
        </mxCell>
        <mxCell id="VrxfjHSECOV5ghHh9eAR-102" value="Code indicating user language" style="shape=partialRectangle;connectable=0;fillColor=none;top=0;left=0;bottom=0;right=0;align=left;spacingLeft=6;fontStyle=5;overflow=hidden;whiteSpace=wrap;html=1;" parent="VrxfjHSECOV5ghHh9eAR-99" vertex="1">
          <mxGeometry x="200" width="190.00000000000023" height="20" as="geometry">
            <mxRectangle width="190.00000000000023" height="20" as="alternateBounds" />
          </mxGeometry>
        </mxCell>
        <mxCell id="VrxfjHSECOV5ghHh9eAR-103" value="Primary key" style="shape=partialRectangle;connectable=0;fillColor=none;top=0;left=0;bottom=0;right=0;align=left;spacingLeft=6;fontStyle=5;overflow=hidden;whiteSpace=wrap;html=1;" parent="VrxfjHSECOV5ghHh9eAR-99" vertex="1">
          <mxGeometry x="390.0000000000002" width="169.99999999999977" height="20" as="geometry">
            <mxRectangle width="169.99999999999977" height="20" as="alternateBounds" />
          </mxGeometry>
        </mxCell>
        <mxCell id="VrxfjHSECOV5ghHh9eAR-104" style="shape=tableRow;horizontal=0;startSize=0;swimlaneHead=0;swimlaneBody=0;fillColor=none;collapsible=0;dropTarget=0;points=[[0,0.5],[1,0.5]];portConstraint=eastwest;top=0;left=0;right=0;bottom=1;" parent="VrxfjHSECOV5ghHh9eAR-93" vertex="1">
          <mxGeometry y="90" width="560" height="30" as="geometry" />
        </mxCell>
        <mxCell id="VrxfjHSECOV5ghHh9eAR-105" value="name" style="shape=partialRectangle;connectable=0;fillColor=none;top=0;left=0;bottom=0;right=0;fontStyle=1;overflow=hidden;whiteSpace=wrap;html=1;" parent="VrxfjHSECOV5ghHh9eAR-104" vertex="1">
          <mxGeometry width="110.00000000000011" height="30" as="geometry">
            <mxRectangle width="110.00000000000011" height="30" as="alternateBounds" />
          </mxGeometry>
        </mxCell>
        <mxCell id="VrxfjHSECOV5ghHh9eAR-106" value="varchar(60)" style="shape=partialRectangle;connectable=0;fillColor=none;top=0;left=0;bottom=0;right=0;align=left;spacingLeft=6;fontStyle=5;overflow=hidden;whiteSpace=wrap;html=1;" parent="VrxfjHSECOV5ghHh9eAR-104" vertex="1">
          <mxGeometry x="110.00000000000011" width="89.99999999999989" height="30" as="geometry">
            <mxRectangle width="89.99999999999989" height="30" as="alternateBounds" />
          </mxGeometry>
        </mxCell>
        <mxCell id="VrxfjHSECOV5ghHh9eAR-107" value="Username" style="shape=partialRectangle;connectable=0;fillColor=none;top=0;left=0;bottom=0;right=0;align=left;spacingLeft=6;fontStyle=5;overflow=hidden;whiteSpace=wrap;html=1;" parent="VrxfjHSECOV5ghHh9eAR-104" vertex="1">
          <mxGeometry x="200" width="190.00000000000023" height="30" as="geometry">
            <mxRectangle width="190.00000000000023" height="30" as="alternateBounds" />
          </mxGeometry>
        </mxCell>
        <mxCell id="VrxfjHSECOV5ghHh9eAR-108" value="" style="shape=partialRectangle;connectable=0;fillColor=none;top=0;left=0;bottom=0;right=0;align=left;spacingLeft=6;fontStyle=5;overflow=hidden;whiteSpace=wrap;html=1;" parent="VrxfjHSECOV5ghHh9eAR-104" vertex="1">
          <mxGeometry x="390.0000000000002" width="169.99999999999977" height="30" as="geometry">
            <mxRectangle width="169.99999999999977" height="30" as="alternateBounds" />
          </mxGeometry>
        </mxCell>
        <mxCell id="VrxfjHSECOV5ghHh9eAR-109" style="shape=tableRow;horizontal=0;startSize=0;swimlaneHead=0;swimlaneBody=0;fillColor=none;collapsible=0;dropTarget=0;points=[[0,0.5],[1,0.5]];portConstraint=eastwest;top=0;left=0;right=0;bottom=1;" parent="VrxfjHSECOV5ghHh9eAR-93" vertex="1">
          <mxGeometry y="120" width="560" height="30" as="geometry" />
        </mxCell>
        <mxCell id="VrxfjHSECOV5ghHh9eAR-110" value="mail" style="shape=partialRectangle;connectable=0;fillColor=none;top=0;left=0;bottom=0;right=0;fontStyle=1;overflow=hidden;whiteSpace=wrap;html=1;" parent="VrxfjHSECOV5ghHh9eAR-109" vertex="1">
          <mxGeometry width="110.00000000000011" height="30" as="geometry">
            <mxRectangle width="110.00000000000011" height="30" as="alternateBounds" />
          </mxGeometry>
        </mxCell>
        <mxCell id="VrxfjHSECOV5ghHh9eAR-111" value="varchar(254)" style="shape=partialRectangle;connectable=0;fillColor=none;top=0;left=0;bottom=0;right=0;align=left;spacingLeft=6;fontStyle=5;overflow=hidden;whiteSpace=wrap;html=1;" parent="VrxfjHSECOV5ghHh9eAR-109" vertex="1">
          <mxGeometry x="110.00000000000011" width="89.99999999999989" height="30" as="geometry">
            <mxRectangle width="89.99999999999989" height="30" as="alternateBounds" />
          </mxGeometry>
        </mxCell>
        <mxCell id="VrxfjHSECOV5ghHh9eAR-112" value="User email" style="shape=partialRectangle;connectable=0;fillColor=none;top=0;left=0;bottom=0;right=0;align=left;spacingLeft=6;fontStyle=5;overflow=hidden;whiteSpace=wrap;html=1;" parent="VrxfjHSECOV5ghHh9eAR-109" vertex="1">
          <mxGeometry x="200" width="190.00000000000023" height="30" as="geometry">
            <mxRectangle width="190.00000000000023" height="30" as="alternateBounds" />
          </mxGeometry>
        </mxCell>
        <mxCell id="VrxfjHSECOV5ghHh9eAR-113" style="shape=partialRectangle;connectable=0;fillColor=none;top=0;left=0;bottom=0;right=0;align=left;spacingLeft=6;fontStyle=5;overflow=hidden;whiteSpace=wrap;html=1;" parent="VrxfjHSECOV5ghHh9eAR-109" vertex="1">
          <mxGeometry x="390.0000000000002" width="169.99999999999977" height="30" as="geometry">
            <mxRectangle width="169.99999999999977" height="30" as="alternateBounds" />
          </mxGeometry>
        </mxCell>
        <mxCell id="HI9bSLsyh9AOANlxZ15x-39" style="shape=tableRow;horizontal=0;startSize=0;swimlaneHead=0;swimlaneBody=0;fillColor=none;collapsible=0;dropTarget=0;points=[[0,0.5],[1,0.5]];portConstraint=eastwest;top=0;left=0;right=0;bottom=1;" vertex="1" parent="VrxfjHSECOV5ghHh9eAR-93">
          <mxGeometry y="150" width="560" height="30" as="geometry" />
        </mxCell>
        <mxCell id="HI9bSLsyh9AOANlxZ15x-40" value="timezone" style="shape=partialRectangle;connectable=0;fillColor=none;top=0;left=0;bottom=0;right=0;fontStyle=1;overflow=hidden;whiteSpace=wrap;html=1;" vertex="1" parent="HI9bSLsyh9AOANlxZ15x-39">
          <mxGeometry width="110.00000000000011" height="30" as="geometry">
            <mxRectangle width="110.00000000000011" height="30" as="alternateBounds" />
          </mxGeometry>
        </mxCell>
        <mxCell id="HI9bSLsyh9AOANlxZ15x-41" value="varchar(32)" style="shape=partialRectangle;connectable=0;fillColor=none;top=0;left=0;bottom=0;right=0;align=left;spacingLeft=6;fontStyle=5;overflow=hidden;whiteSpace=wrap;html=1;" vertex="1" parent="HI9bSLsyh9AOANlxZ15x-39">
          <mxGeometry x="110.00000000000011" width="89.99999999999989" height="30" as="geometry">
            <mxRectangle width="89.99999999999989" height="30" as="alternateBounds" />
          </mxGeometry>
        </mxCell>
        <mxCell id="HI9bSLsyh9AOANlxZ15x-42" value="Timezone user resides in" style="shape=partialRectangle;connectable=0;fillColor=none;top=0;left=0;bottom=0;right=0;align=left;spacingLeft=6;fontStyle=5;overflow=hidden;whiteSpace=wrap;html=1;" vertex="1" parent="HI9bSLsyh9AOANlxZ15x-39">
          <mxGeometry x="200" width="190.00000000000023" height="30" as="geometry">
            <mxRectangle width="190.00000000000023" height="30" as="alternateBounds" />
          </mxGeometry>
        </mxCell>
        <mxCell id="HI9bSLsyh9AOANlxZ15x-43" style="shape=partialRectangle;connectable=0;fillColor=none;top=0;left=0;bottom=0;right=0;align=left;spacingLeft=6;fontStyle=5;overflow=hidden;whiteSpace=wrap;html=1;" vertex="1" parent="HI9bSLsyh9AOANlxZ15x-39">
          <mxGeometry x="390.0000000000002" width="169.99999999999977" height="30" as="geometry">
            <mxRectangle width="169.99999999999977" height="30" as="alternateBounds" />
          </mxGeometry>
        </mxCell>
        <mxCell id="VrxfjHSECOV5ghHh9eAR-124" value="fitbit_sleep" style="shape=table;startSize=30;container=1;collapsible=1;childLayout=tableLayout;fixedRows=1;rowLines=0;fontStyle=1;align=center;resizeLast=1;html=1;" parent="1" vertex="1">
          <mxGeometry x="30" y="600" width="590" height="320" as="geometry" />
        </mxCell>
        <mxCell id="VrxfjHSECOV5ghHh9eAR-125" style="shape=tableRow;horizontal=0;startSize=0;swimlaneHead=0;swimlaneBody=0;fillColor=none;collapsible=0;dropTarget=0;points=[[0,0.5],[1,0.5]];portConstraint=eastwest;top=0;left=0;right=0;bottom=1;" parent="VrxfjHSECOV5ghHh9eAR-124" vertex="1">
          <mxGeometry y="30" width="590" height="30" as="geometry" />
        </mxCell>
        <mxCell id="VrxfjHSECOV5ghHh9eAR-126" value="id" style="shape=partialRectangle;connectable=0;fillColor=none;top=0;left=0;bottom=0;right=0;fontStyle=1;overflow=hidden;whiteSpace=wrap;html=1;" parent="VrxfjHSECOV5ghHh9eAR-125" vertex="1">
          <mxGeometry width="110.00000000000011" height="30" as="geometry">
            <mxRectangle width="110.00000000000011" height="30" as="alternateBounds" />
          </mxGeometry>
        </mxCell>
        <mxCell id="VrxfjHSECOV5ghHh9eAR-127" value="int unsigned" style="shape=partialRectangle;connectable=0;fillColor=none;top=0;left=0;bottom=0;right=0;align=left;spacingLeft=6;fontStyle=5;overflow=hidden;whiteSpace=wrap;html=1;" parent="VrxfjHSECOV5ghHh9eAR-125" vertex="1">
          <mxGeometry x="110.00000000000011" width="99.99999999999989" height="30" as="geometry">
            <mxRectangle width="99.99999999999989" height="30" as="alternateBounds" />
          </mxGeometry>
        </mxCell>
        <mxCell id="VrxfjHSECOV5ghHh9eAR-128" value="ID of sleep record" style="shape=partialRectangle;connectable=0;fillColor=none;top=0;left=0;bottom=0;right=0;align=left;spacingLeft=6;fontStyle=5;overflow=hidden;whiteSpace=wrap;html=1;" parent="VrxfjHSECOV5ghHh9eAR-125" vertex="1">
          <mxGeometry x="210" width="230" height="30" as="geometry">
            <mxRectangle width="230" height="30" as="alternateBounds" />
          </mxGeometry>
        </mxCell>
        <mxCell id="VrxfjHSECOV5ghHh9eAR-129" value="Primary key, auto increment" style="shape=partialRectangle;connectable=0;fillColor=none;top=0;left=0;bottom=0;right=0;align=left;spacingLeft=6;fontStyle=5;overflow=hidden;whiteSpace=wrap;html=1;" parent="VrxfjHSECOV5ghHh9eAR-125" vertex="1">
          <mxGeometry x="440" width="150" height="30" as="geometry">
            <mxRectangle width="150" height="30" as="alternateBounds" />
          </mxGeometry>
        </mxCell>
        <mxCell id="VrxfjHSECOV5ghHh9eAR-130" style="shape=tableRow;horizontal=0;startSize=0;swimlaneHead=0;swimlaneBody=0;fillColor=none;collapsible=0;dropTarget=0;points=[[0,0.5],[1,0.5]];portConstraint=eastwest;top=0;left=0;right=0;bottom=1;" parent="VrxfjHSECOV5ghHh9eAR-124" vertex="1">
          <mxGeometry y="60" width="590" height="30" as="geometry" />
        </mxCell>
        <mxCell id="VrxfjHSECOV5ghHh9eAR-131" value="user_id" style="shape=partialRectangle;connectable=0;fillColor=none;top=0;left=0;bottom=0;right=0;fontStyle=1;overflow=hidden;whiteSpace=wrap;html=1;" parent="VrxfjHSECOV5ghHh9eAR-130" vertex="1">
          <mxGeometry width="110.00000000000011" height="30" as="geometry">
            <mxRectangle width="110.00000000000011" height="30" as="alternateBounds" />
          </mxGeometry>
        </mxCell>
        <mxCell id="VrxfjHSECOV5ghHh9eAR-132" value="int unsigned" style="shape=partialRectangle;connectable=0;fillColor=none;top=0;left=0;bottom=0;right=0;align=left;spacingLeft=6;fontStyle=5;overflow=hidden;whiteSpace=wrap;html=1;" parent="VrxfjHSECOV5ghHh9eAR-130" vertex="1">
          <mxGeometry x="110.00000000000011" width="99.99999999999989" height="30" as="geometry">
            <mxRectangle width="99.99999999999989" height="30" as="alternateBounds" />
          </mxGeometry>
        </mxCell>
        <mxCell id="VrxfjHSECOV5ghHh9eAR-133" value="ID of user" style="shape=partialRectangle;connectable=0;fillColor=none;top=0;left=0;bottom=0;right=0;align=left;spacingLeft=6;fontStyle=5;overflow=hidden;whiteSpace=wrap;html=1;" parent="VrxfjHSECOV5ghHh9eAR-130" vertex="1">
          <mxGeometry x="210" width="230" height="30" as="geometry">
            <mxRectangle width="230" height="30" as="alternateBounds" />
          </mxGeometry>
        </mxCell>
        <mxCell id="VrxfjHSECOV5ghHh9eAR-134" style="shape=partialRectangle;connectable=0;fillColor=none;top=0;left=0;bottom=0;right=0;align=left;spacingLeft=6;fontStyle=5;overflow=hidden;whiteSpace=wrap;html=1;" parent="VrxfjHSECOV5ghHh9eAR-130" vertex="1">
          <mxGeometry x="440" width="150" height="30" as="geometry">
            <mxRectangle width="150" height="30" as="alternateBounds" />
          </mxGeometry>
        </mxCell>
        <mxCell id="VrxfjHSECOV5ghHh9eAR-135" style="shape=tableRow;horizontal=0;startSize=0;swimlaneHead=0;swimlaneBody=0;fillColor=none;collapsible=0;dropTarget=0;points=[[0,0.5],[1,0.5]];portConstraint=eastwest;top=0;left=0;right=0;bottom=1;" parent="VrxfjHSECOV5ghHh9eAR-124" vertex="1">
          <mxGeometry y="90" width="590" height="30" as="geometry" />
        </mxCell>
        <mxCell id="VrxfjHSECOV5ghHh9eAR-136" value="name" style="shape=partialRectangle;connectable=0;fillColor=none;top=0;left=0;bottom=0;right=0;fontStyle=1;overflow=hidden;whiteSpace=wrap;html=1;" parent="VrxfjHSECOV5ghHh9eAR-135" vertex="1">
          <mxGeometry width="110.00000000000011" height="30" as="geometry">
            <mxRectangle width="110.00000000000011" height="30" as="alternateBounds" />
          </mxGeometry>
        </mxCell>
        <mxCell id="VrxfjHSECOV5ghHh9eAR-137" value="varchar(50)" style="shape=partialRectangle;connectable=0;fillColor=none;top=0;left=0;bottom=0;right=0;align=left;spacingLeft=6;fontStyle=5;overflow=hidden;whiteSpace=wrap;html=1;" parent="VrxfjHSECOV5ghHh9eAR-135" vertex="1">
          <mxGeometry x="110.00000000000011" width="99.99999999999989" height="30" as="geometry">
            <mxRectangle width="99.99999999999989" height="30" as="alternateBounds" />
          </mxGeometry>
        </mxCell>
        <mxCell id="VrxfjHSECOV5ghHh9eAR-138" value="Username" style="shape=partialRectangle;connectable=0;fillColor=none;top=0;left=0;bottom=0;right=0;align=left;spacingLeft=6;fontStyle=5;overflow=hidden;whiteSpace=wrap;html=1;" parent="VrxfjHSECOV5ghHh9eAR-135" vertex="1">
          <mxGeometry x="210" width="230" height="30" as="geometry">
            <mxRectangle width="230" height="30" as="alternateBounds" />
          </mxGeometry>
        </mxCell>
        <mxCell id="VrxfjHSECOV5ghHh9eAR-139" value="" style="shape=partialRectangle;connectable=0;fillColor=none;top=0;left=0;bottom=0;right=0;align=left;spacingLeft=6;fontStyle=5;overflow=hidden;whiteSpace=wrap;html=1;" parent="VrxfjHSECOV5ghHh9eAR-135" vertex="1">
          <mxGeometry x="440" width="150" height="30" as="geometry">
            <mxRectangle width="150" height="30" as="alternateBounds" />
          </mxGeometry>
        </mxCell>
        <mxCell id="VrxfjHSECOV5ghHh9eAR-145" value="" style="shape=tableRow;horizontal=0;startSize=0;swimlaneHead=0;swimlaneBody=0;fillColor=none;collapsible=0;dropTarget=0;points=[[0,0.5],[1,0.5]];portConstraint=eastwest;top=0;left=0;right=0;bottom=1;" parent="VrxfjHSECOV5ghHh9eAR-124" vertex="1">
          <mxGeometry y="120" width="590" height="30" as="geometry" />
        </mxCell>
        <mxCell id="VrxfjHSECOV5ghHh9eAR-146" value="fitbit_date" style="shape=partialRectangle;connectable=0;fillColor=none;top=0;left=0;bottom=0;right=0;fontStyle=1;overflow=hidden;whiteSpace=wrap;html=1;" parent="VrxfjHSECOV5ghHh9eAR-145" vertex="1">
          <mxGeometry width="110.00000000000011" height="30" as="geometry">
            <mxRectangle width="110.00000000000011" height="30" as="alternateBounds" />
          </mxGeometry>
        </mxCell>
        <mxCell id="VrxfjHSECOV5ghHh9eAR-147" value="varchar(50)" style="shape=partialRectangle;connectable=0;fillColor=none;top=0;left=0;bottom=0;right=0;align=left;spacingLeft=6;fontStyle=5;overflow=hidden;whiteSpace=wrap;html=1;" parent="VrxfjHSECOV5ghHh9eAR-145" vertex="1">
          <mxGeometry x="110.00000000000011" width="99.99999999999989" height="30" as="geometry">
            <mxRectangle width="99.99999999999989" height="30" as="alternateBounds" />
          </mxGeometry>
        </mxCell>
        <mxCell id="VrxfjHSECOV5ghHh9eAR-148" value="date of sleep record" style="shape=partialRectangle;connectable=0;fillColor=none;top=0;left=0;bottom=0;right=0;align=left;spacingLeft=6;fontStyle=5;overflow=hidden;whiteSpace=wrap;html=1;" parent="VrxfjHSECOV5ghHh9eAR-145" vertex="1">
          <mxGeometry x="210" width="230" height="30" as="geometry">
            <mxRectangle width="230" height="30" as="alternateBounds" />
          </mxGeometry>
        </mxCell>
        <mxCell id="VrxfjHSECOV5ghHh9eAR-149" style="shape=partialRectangle;connectable=0;fillColor=none;top=0;left=0;bottom=0;right=0;align=left;spacingLeft=6;fontStyle=5;overflow=hidden;whiteSpace=wrap;html=1;" parent="VrxfjHSECOV5ghHh9eAR-145" vertex="1">
          <mxGeometry x="440" width="150" height="30" as="geometry">
            <mxRectangle width="150" height="30" as="alternateBounds" />
          </mxGeometry>
        </mxCell>
        <mxCell id="HI9bSLsyh9AOANlxZ15x-24" style="shape=tableRow;horizontal=0;startSize=0;swimlaneHead=0;swimlaneBody=0;fillColor=none;collapsible=0;dropTarget=0;points=[[0,0.5],[1,0.5]];portConstraint=eastwest;top=0;left=0;right=0;bottom=1;" vertex="1" parent="VrxfjHSECOV5ghHh9eAR-124">
          <mxGeometry y="150" width="590" height="30" as="geometry" />
        </mxCell>
        <mxCell id="HI9bSLsyh9AOANlxZ15x-25" value="fitbit_duration" style="shape=partialRectangle;connectable=0;fillColor=none;top=0;left=0;bottom=0;right=0;fontStyle=1;overflow=hidden;whiteSpace=wrap;html=1;" vertex="1" parent="HI9bSLsyh9AOANlxZ15x-24">
          <mxGeometry width="110.00000000000011" height="30" as="geometry">
            <mxRectangle width="110.00000000000011" height="30" as="alternateBounds" />
          </mxGeometry>
        </mxCell>
        <mxCell id="HI9bSLsyh9AOANlxZ15x-26" value="int" style="shape=partialRectangle;connectable=0;fillColor=none;top=0;left=0;bottom=0;right=0;align=left;spacingLeft=6;fontStyle=5;overflow=hidden;whiteSpace=wrap;html=1;" vertex="1" parent="HI9bSLsyh9AOANlxZ15x-24">
          <mxGeometry x="110.00000000000011" width="99.99999999999989" height="30" as="geometry">
            <mxRectangle width="99.99999999999989" height="30" as="alternateBounds" />
          </mxGeometry>
        </mxCell>
        <mxCell id="HI9bSLsyh9AOANlxZ15x-27" value="Duration, in mins, of sleep" style="shape=partialRectangle;connectable=0;fillColor=none;top=0;left=0;bottom=0;right=0;align=left;spacingLeft=6;fontStyle=5;overflow=hidden;whiteSpace=wrap;html=1;" vertex="1" parent="HI9bSLsyh9AOANlxZ15x-24">
          <mxGeometry x="210" width="230" height="30" as="geometry">
            <mxRectangle width="230" height="30" as="alternateBounds" />
          </mxGeometry>
        </mxCell>
        <mxCell id="HI9bSLsyh9AOANlxZ15x-28" style="shape=partialRectangle;connectable=0;fillColor=none;top=0;left=0;bottom=0;right=0;align=left;spacingLeft=6;fontStyle=5;overflow=hidden;whiteSpace=wrap;html=1;" vertex="1" parent="HI9bSLsyh9AOANlxZ15x-24">
          <mxGeometry x="440" width="150" height="30" as="geometry">
            <mxRectangle width="150" height="30" as="alternateBounds" />
          </mxGeometry>
        </mxCell>
        <mxCell id="HI9bSLsyh9AOANlxZ15x-19" style="shape=tableRow;horizontal=0;startSize=0;swimlaneHead=0;swimlaneBody=0;fillColor=none;collapsible=0;dropTarget=0;points=[[0,0.5],[1,0.5]];portConstraint=eastwest;top=0;left=0;right=0;bottom=1;" vertex="1" parent="VrxfjHSECOV5ghHh9eAR-124">
          <mxGeometry y="180" width="590" height="30" as="geometry" />
        </mxCell>
        <mxCell id="HI9bSLsyh9AOANlxZ15x-20" value="fitbit_efficiency" style="shape=partialRectangle;connectable=0;fillColor=none;top=0;left=0;bottom=0;right=0;fontStyle=1;overflow=hidden;whiteSpace=wrap;html=1;" vertex="1" parent="HI9bSLsyh9AOANlxZ15x-19">
          <mxGeometry width="110.00000000000011" height="30" as="geometry">
            <mxRectangle width="110.00000000000011" height="30" as="alternateBounds" />
          </mxGeometry>
        </mxCell>
        <mxCell id="HI9bSLsyh9AOANlxZ15x-21" value="int" style="shape=partialRectangle;connectable=0;fillColor=none;top=0;left=0;bottom=0;right=0;align=left;spacingLeft=6;fontStyle=5;overflow=hidden;whiteSpace=wrap;html=1;" vertex="1" parent="HI9bSLsyh9AOANlxZ15x-19">
          <mxGeometry x="110.00000000000011" width="99.99999999999989" height="30" as="geometry">
            <mxRectangle width="99.99999999999989" height="30" as="alternateBounds" />
          </mxGeometry>
        </mxCell>
        <mxCell id="HI9bSLsyh9AOANlxZ15x-22" value="Fitbit metric tracking efficiency of sleep" style="shape=partialRectangle;connectable=0;fillColor=none;top=0;left=0;bottom=0;right=0;align=left;spacingLeft=6;fontStyle=5;overflow=hidden;whiteSpace=wrap;html=1;" vertex="1" parent="HI9bSLsyh9AOANlxZ15x-19">
          <mxGeometry x="210" width="230" height="30" as="geometry">
            <mxRectangle width="230" height="30" as="alternateBounds" />
          </mxGeometry>
        </mxCell>
        <mxCell id="HI9bSLsyh9AOANlxZ15x-23" style="shape=partialRectangle;connectable=0;fillColor=none;top=0;left=0;bottom=0;right=0;align=left;spacingLeft=6;fontStyle=5;overflow=hidden;whiteSpace=wrap;html=1;" vertex="1" parent="HI9bSLsyh9AOANlxZ15x-19">
          <mxGeometry x="440" width="150" height="30" as="geometry">
            <mxRectangle width="150" height="30" as="alternateBounds" />
          </mxGeometry>
        </mxCell>
        <mxCell id="HI9bSLsyh9AOANlxZ15x-29" style="shape=tableRow;horizontal=0;startSize=0;swimlaneHead=0;swimlaneBody=0;fillColor=none;collapsible=0;dropTarget=0;points=[[0,0.5],[1,0.5]];portConstraint=eastwest;top=0;left=0;right=0;bottom=1;" vertex="1" parent="VrxfjHSECOV5ghHh9eAR-124">
          <mxGeometry y="210" width="590" height="30" as="geometry" />
        </mxCell>
        <mxCell id="HI9bSLsyh9AOANlxZ15x-30" value="fitbit_timeinbed" style="shape=partialRectangle;connectable=0;fillColor=none;top=0;left=0;bottom=0;right=0;fontStyle=1;overflow=hidden;whiteSpace=wrap;html=1;" vertex="1" parent="HI9bSLsyh9AOANlxZ15x-29">
          <mxGeometry width="110.00000000000011" height="30" as="geometry">
            <mxRectangle width="110.00000000000011" height="30" as="alternateBounds" />
          </mxGeometry>
        </mxCell>
        <mxCell id="HI9bSLsyh9AOANlxZ15x-31" value="int" style="shape=partialRectangle;connectable=0;fillColor=none;top=0;left=0;bottom=0;right=0;align=left;spacingLeft=6;fontStyle=5;overflow=hidden;whiteSpace=wrap;html=1;" vertex="1" parent="HI9bSLsyh9AOANlxZ15x-29">
          <mxGeometry x="110.00000000000011" width="99.99999999999989" height="30" as="geometry">
            <mxRectangle width="99.99999999999989" height="30" as="alternateBounds" />
          </mxGeometry>
        </mxCell>
        <mxCell id="HI9bSLsyh9AOANlxZ15x-32" value="Duration, in mins, of time in bed" style="shape=partialRectangle;connectable=0;fillColor=none;top=0;left=0;bottom=0;right=0;align=left;spacingLeft=6;fontStyle=5;overflow=hidden;whiteSpace=wrap;html=1;" vertex="1" parent="HI9bSLsyh9AOANlxZ15x-29">
          <mxGeometry x="210" width="230" height="30" as="geometry">
            <mxRectangle width="230" height="30" as="alternateBounds" />
          </mxGeometry>
        </mxCell>
        <mxCell id="HI9bSLsyh9AOANlxZ15x-33" style="shape=partialRectangle;connectable=0;fillColor=none;top=0;left=0;bottom=0;right=0;align=left;spacingLeft=6;fontStyle=5;overflow=hidden;whiteSpace=wrap;html=1;" vertex="1" parent="HI9bSLsyh9AOANlxZ15x-29">
          <mxGeometry x="440" width="150" height="30" as="geometry">
            <mxRectangle width="150" height="30" as="alternateBounds" />
          </mxGeometry>
        </mxCell>
        <mxCell id="HI9bSLsyh9AOANlxZ15x-14" style="shape=tableRow;horizontal=0;startSize=0;swimlaneHead=0;swimlaneBody=0;fillColor=none;collapsible=0;dropTarget=0;points=[[0,0.5],[1,0.5]];portConstraint=eastwest;top=0;left=0;right=0;bottom=1;" vertex="1" parent="VrxfjHSECOV5ghHh9eAR-124">
          <mxGeometry y="240" width="590" height="50" as="geometry" />
        </mxCell>
        <mxCell id="HI9bSLsyh9AOANlxZ15x-15" value="fitbit_ismainsleep" style="shape=partialRectangle;connectable=0;fillColor=none;top=0;left=0;bottom=0;right=0;fontStyle=1;overflow=hidden;whiteSpace=wrap;html=1;" vertex="1" parent="HI9bSLsyh9AOANlxZ15x-14">
          <mxGeometry width="110.00000000000011" height="50" as="geometry">
            <mxRectangle width="110.00000000000011" height="50" as="alternateBounds" />
          </mxGeometry>
        </mxCell>
        <mxCell id="HI9bSLsyh9AOANlxZ15x-16" value="tinyint" style="shape=partialRectangle;connectable=0;fillColor=none;top=0;left=0;bottom=0;right=0;align=left;spacingLeft=6;fontStyle=5;overflow=hidden;whiteSpace=wrap;html=1;" vertex="1" parent="HI9bSLsyh9AOANlxZ15x-14">
          <mxGeometry x="110.00000000000011" width="99.99999999999989" height="50" as="geometry">
            <mxRectangle width="99.99999999999989" height="50" as="alternateBounds" />
          </mxGeometry>
        </mxCell>
        <mxCell id="HI9bSLsyh9AOANlxZ15x-17" value="Seems to be a boolean value indicating whether it is main sleep or not" style="shape=partialRectangle;connectable=0;fillColor=none;top=0;left=0;bottom=0;right=0;align=left;spacingLeft=6;fontStyle=5;overflow=hidden;whiteSpace=wrap;html=1;" vertex="1" parent="HI9bSLsyh9AOANlxZ15x-14">
          <mxGeometry x="210" width="230" height="50" as="geometry">
            <mxRectangle width="230" height="50" as="alternateBounds" />
          </mxGeometry>
        </mxCell>
        <mxCell id="HI9bSLsyh9AOANlxZ15x-18" style="shape=partialRectangle;connectable=0;fillColor=none;top=0;left=0;bottom=0;right=0;align=left;spacingLeft=6;fontStyle=5;overflow=hidden;whiteSpace=wrap;html=1;" vertex="1" parent="HI9bSLsyh9AOANlxZ15x-14">
          <mxGeometry x="440" width="150" height="50" as="geometry">
            <mxRectangle width="150" height="50" as="alternateBounds" />
          </mxGeometry>
        </mxCell>
        <mxCell id="HI9bSLsyh9AOANlxZ15x-34" style="shape=tableRow;horizontal=0;startSize=0;swimlaneHead=0;swimlaneBody=0;fillColor=none;collapsible=0;dropTarget=0;points=[[0,0.5],[1,0.5]];portConstraint=eastwest;top=0;left=0;right=0;bottom=1;" vertex="1" parent="VrxfjHSECOV5ghHh9eAR-124">
          <mxGeometry y="290" width="590" height="30" as="geometry" />
        </mxCell>
        <mxCell id="HI9bSLsyh9AOANlxZ15x-35" value="created" style="shape=partialRectangle;connectable=0;fillColor=none;top=0;left=0;bottom=0;right=0;fontStyle=1;overflow=hidden;whiteSpace=wrap;html=1;" vertex="1" parent="HI9bSLsyh9AOANlxZ15x-34">
          <mxGeometry width="110.00000000000011" height="30" as="geometry">
            <mxRectangle width="110.00000000000011" height="30" as="alternateBounds" />
          </mxGeometry>
        </mxCell>
        <mxCell id="HI9bSLsyh9AOANlxZ15x-36" value="int" style="shape=partialRectangle;connectable=0;fillColor=none;top=0;left=0;bottom=0;right=0;align=left;spacingLeft=6;fontStyle=5;overflow=hidden;whiteSpace=wrap;html=1;" vertex="1" parent="HI9bSLsyh9AOANlxZ15x-34">
          <mxGeometry x="110.00000000000011" width="99.99999999999989" height="30" as="geometry">
            <mxRectangle width="99.99999999999989" height="30" as="alternateBounds" />
          </mxGeometry>
        </mxCell>
        <mxCell id="HI9bSLsyh9AOANlxZ15x-37" value="Unknown" style="shape=partialRectangle;connectable=0;fillColor=none;top=0;left=0;bottom=0;right=0;align=left;spacingLeft=6;fontStyle=5;overflow=hidden;whiteSpace=wrap;html=1;" vertex="1" parent="HI9bSLsyh9AOANlxZ15x-34">
          <mxGeometry x="210" width="230" height="30" as="geometry">
            <mxRectangle width="230" height="30" as="alternateBounds" />
          </mxGeometry>
        </mxCell>
        <mxCell id="HI9bSLsyh9AOANlxZ15x-38" style="shape=partialRectangle;connectable=0;fillColor=none;top=0;left=0;bottom=0;right=0;align=left;spacingLeft=6;fontStyle=5;overflow=hidden;whiteSpace=wrap;html=1;" vertex="1" parent="HI9bSLsyh9AOANlxZ15x-34">
          <mxGeometry x="440" width="150" height="30" as="geometry">
            <mxRectangle width="150" height="30" as="alternateBounds" />
          </mxGeometry>
        </mxCell>
        <mxCell id="HI9bSLsyh9AOANlxZ15x-44" style="edgeStyle=orthogonalEdgeStyle;rounded=0;orthogonalLoop=1;jettySize=auto;html=1;exitX=0;exitY=0.5;exitDx=0;exitDy=0;entryX=0;entryY=0.5;entryDx=0;entryDy=0;" edge="1" parent="1" source="VrxfjHSECOV5ghHh9eAR-94" target="VrxfjHSECOV5ghHh9eAR-83">
          <mxGeometry relative="1" as="geometry" />
        </mxCell>
        <mxCell id="HI9bSLsyh9AOANlxZ15x-45" style="edgeStyle=orthogonalEdgeStyle;rounded=0;orthogonalLoop=1;jettySize=auto;html=1;" edge="1" parent="1" source="VrxfjHSECOV5ghHh9eAR-130" target="VrxfjHSECOV5ghHh9eAR-94">
          <mxGeometry relative="1" as="geometry">
            <Array as="points">
              <mxPoint x="10" y="675" />
              <mxPoint x="10" y="590" />
              <mxPoint x="620" y="590" />
              <mxPoint x="620" y="440" />
            </Array>
          </mxGeometry>
        </mxCell>
      </root>
    </mxGraphModel>
  </diagram>
</mxfile>
